<svg fill="none" height="24" viewBox="0 0 24 24" width="24" xmlns="http://www.w3.org/2000/svg"><g fill="#292d32"><path d="m9.53955 16.6701c-.41 0-.75-.34-.75-.75v-3.39l-.19.21c-.28.31-.75.33-1.06.06-.31-.28-.33-.75-.06-1.06l1.5-1.67c.21-.23002.53999-.31003.82999-.20003.28996.11.47996.39003.47996.70003v5.35c0 .42-.32995.75-.74995.75z"/><path d="m10.02 5.21993c-.17003 0-.33003-.04998-.47003-.16998-.32-.26-.36999-.72999-.11999-1.04999l1.98002-2.46997c.26-.32.73-.37006 1.05-.12006s.37.73005.12 1.05005l-1.98 2.46997c-.14.19-.36.28998-.58.28998z"/><path d="m11.9994 22.7498c-5.31001 0-9.64002-4.3201-9.64002-9.6401 0-2.07.67001-4.05997 1.95001-5.75997.25-.33.71999-.39996 1.04999-.14996.32999.25.40002.71999.15002 1.04999-1.08 1.44-1.65002 3.11994-1.65002 4.85994 0 4.49 3.65001 8.1401 8.14002 8.1401 4.49 0 8.14-3.6501 8.14-8.1401 0-4.48996-3.65-8.13997-8.14-8.13997-.58 0-1.17.07003-1.81.22003-.40001.09-.81-.16-.9-.56s.16-.81002.56-.90002c.75-.17 1.46-.26001 2.15-.26001 5.31 0 9.64 4.32001 9.64 9.63997 0 5.32-4.33 9.6401-9.64 9.6401z"/><path d="m14 16.6703c-1.52 0-2.75-1.23-2.75-2.75v-1.35c0-1.52 1.23-2.74999 2.75-2.74999s2.75 1.22999 2.75 2.74999v1.35c0 1.52-1.23 2.75-2.75 2.75zm0-5.34c-.69 0-1.25.56-1.25 1.25v1.35c0 .69.56 1.25 1.25 1.25s1.25-.56 1.25-1.25v-1.35c0-.69-.56-1.25-1.25-1.25z"/></g></svg>