<svg fill="none" height="24" viewBox="0 0 24 24" width="24" xmlns="http://www.w3.org/2000/svg"><g fill="#292d32"><path d="m13.9797 5.21973c-.22 0-.44-.09997-.58-.27997l-1.98-2.47003c-.26-.32-.21-.79999.12-1.04999.32-.26.79-.21001 1.05.11999l1.98 2.47004c.26.32.21.79998-.12 1.04998-.14.1-.31.15998-.47.15998z"/><path d="m11.9994 22.7498c-5.31001 0-9.64002-4.3201-9.64002-9.6401 0-5.31996 4.32001-9.63997 9.64002-9.63997.69 0 1.39.08001 2.15.26001.4.09.66.50002.56.90002-.09.4-.49.66-.9.56-.64-.15-1.24-.22003-1.81-.22003-4.49001 0-8.14002 3.65001-8.14002 8.13997 0 4.49 3.65001 8.1401 8.14002 8.1401 4.49 0 8.14-3.6501 8.14-8.1401 0-1.74-.57-3.41994-1.65-4.85994-.25-.33-.18-.79999.15-1.04999s.8-.18004 1.05.14996c1.28 1.7 1.95 3.68997 1.95 5.75997 0 5.32-4.33 9.6401-9.64 9.6401z"/><path d="m9.53955 16.6701c-.41 0-.75-.34-.75-.75v-3.39l-.19.21c-.28.31-.75.33-1.06.06-.31-.28-.33-.75-.06-1.06l1.5-1.67c.21-.23002.53999-.31003.82999-.20003.28996.11.47996.39003.47996.70003v5.35c0 .42-.32995.75-.74995.75z"/><path d="m14 16.6703c-1.52 0-2.75-1.23-2.75-2.75v-1.35c0-1.52 1.23-2.74999 2.75-2.74999s2.75 1.22999 2.75 2.74999v1.35c0 1.52-1.23 2.75-2.75 2.75zm0-5.34c-.69 0-1.25.56-1.25 1.25v1.35c0 .69.56 1.25 1.25 1.25s1.25-.56 1.25-1.25v-1.35c0-.69-.56-1.25-1.25-1.25z"/></g></svg>