<svg height="24" viewBox="0 0 24 24" width="24" xmlns="http://www.w3.org/2000/svg"><path d="m7.65336736 21.1256786c-.36005096.5278111-.96624325.8743214-1.65336736.8743214h-2c-1.1045695 0-2-.8954305-2-2v-9c0-1.1045695.8954305-2 2-2h2c.198171 0 .38961023.02882212.57035446.08250314 1.07412724-1.56442832 4.68512034-5.50801098 5.64991544-6.70951359l.3002255-.37388417h.4795046c.6147967-.00009224 1.1422801.04602774 1.748281.22248599 1.343586.39123184 2.251719 1.30550708 2.251719 2.77751401 0 .52011139-.0920993 1.07463353-.2617758 1.69012877-.112263.40723009-.2510091.81842718-.4411467 1.3287759-.0579192.15546124-.2898845.7636734-.3422864.90536819-.0095957.02594679-.0188645.05118066-.0278143.07572714h3.0730232c1.8695981 0 3 1.31751962 3 3.00000002 0 5.9435691-1.2448589 10-4 10l-6.9655994-.0005919c-.6935524.0126812-1.52896008-.0798557-2.37127694-.3812278-.36790459-.1316324-.70638506-.2953953-1.0097563-.4916071zm.34663264-3.1265732c0 .9022301.45196659 1.418471 1.33687634 1.7350825.57374772.2052809 1.18849826.2733759 1.62618966.2655264.0072839-.0001598.0072839-.0001598.036934-.0006089h7c1.015127 0 2-3.2092548 2-8 0-.6401099-.3087775-1-1-1h-4c-1.1945451 0-1.4444623-.9236468-1.1953464-1.92368851.0586011-.23524583.1442682-.49414279.2743053-.84576323.0568444-.15370724.2899653-.76494919.3439636-.90988622.1714882-.46029216.2932269-.82108504.3872239-1.16205554.125788-.45629171.1898536-.84202483.1898536-1.15860652 0-.45097372-.2378212-.69040349-.8108662-.85726548-.2407602-.07010572-.4777407-.1087456-.7291714-.12760403-1.5456944 1.84772024-5.05332376 5.68630518-5.31825147 6.30485193-.09727939.2271255-.14171093.4398223-.14171093.6800176zm-4-6.9991054v9h2v-9z" fill-rule="evenodd"/></svg>